<?xml version="1.0" encoding="utf-8"?>
<!-- Generator: Adobe Illustrator 28.0.0, SVG Export Plug-In . SVG Version: 6.00 Build 0)  -->
<svg version="1.1" id="layer" xmlns="http://www.w3.org/2000/svg" xmlns:xlink="http://www.w3.org/1999/xlink" x="0px" y="0px"
	 viewBox="0 0 652 652" style="enable-background:new 0 0 652 652;" xml:space="preserve">
<style type="text/css">
	.st0{fill:#0EB880;}
	.st1{fill:#FFFFFF;}
	.st2{font-family:'Aminemod-Bold';}
	.st3{font-size:64.7811px;}
	.st4{font-size:46.8498px;}
	.st5{font-size:42.0613px;}
</style>
<path class="st0" d="M326,652L326,652C146,652,0,506,0,326v0C0,146,146,0,326,0h0c180,0,326,146,326,326v0C652,506,506,652,326,652z
	"/>
<g>
	<g>
		<g>
			<polygon class="st1" points="109.5,196.4 104,196.4 104,163.9 136.5,163.9 136.5,169.4 109.5,169.4 			"/>
		</g>
		<g>
			<polygon class="st1" points="548,488.1 515.5,488.1 515.5,482.6 542.5,482.6 542.5,455.6 548,455.6 			"/>
		</g>
	</g>
	<g>
		<g>
			<g>
				<g>
					<polygon points="374.3,401.7 316.7,401.7 316.7,251.1 374.3,251.1 374.3,255.2 320.8,255.2 320.8,397.6 374.3,397.6 					"/>
				</g>
				<g>
					<polygon points="491.3,401.7 433.7,401.7 433.7,397.6 487.2,397.6 487.2,255.2 433.7,255.2 433.7,251.1 491.3,251.1 					"/>
				</g>
			</g>
			<g>
				<g>
					<g>
						<path d="M429.2,442.2c0-3.9,0-4.8-12.8-12.2c-12.8-7.4-12.5-17.3-12.5-17.3h0c0,0,0.4,9.9-12.5,17.3
							c-12.8,7.4-12.8,8.3-12.8,12.2H429.2z"/>
						<path d="M429.9,442.9H378v-0.7c0-4.3,0.4-5.5,13.2-12.8c11.5-6.6,12.1-15.4,12.1-16.6c0,0,0-0.1,0-0.1c0,0,0,0,0,0l-0.1-1.8
							l1.4,1.5l0,0.3h0c0,0,0,0.1,0,0.2c0,1.4,0.7,9.9,12.1,16.5c12.7,7.3,13.2,8.5,13.2,12.8V442.9z M379.4,441.5h49.2
							c-0.1-3-0.8-4.2-12.5-10.9c-8-4.6-11-10.2-12.1-13.8c-1.1,3.7-4.2,9.3-12.1,13.8C380.2,437.3,379.4,438.5,379.4,441.5z"/>
					</g>
					<g>
						<g>
							<path d="M404,433.1c-1.5,0-2.7-1.2-2.7-2.7V335c0-1.5,1.2-2.7,2.7-2.7c1.5,0,2.7,1.2,2.7,2.7v95.4
								C406.7,431.9,405.5,433.1,404,433.1z"/>
						</g>
						<g>
							<path d="M404,387.1c-1.1,0-2-0.9-2-2c0-33.7-23.9-45.8-24.1-46c-1-0.5-1.4-1.7-0.9-2.7c0.5-1,1.7-1.4,2.7-0.9
								c1.1,0.5,26.4,13.4,26.4,49.6C406,386.2,405.1,387.1,404,387.1z"/>
						</g>
						<g>
							<path d="M404,387.1c-1.1,0-2-0.9-2-2c0-36.2,25.3-49.1,26.4-49.6c1-0.5,2.2-0.1,2.7,0.9c0.5,1,0.1,2.2-0.9,2.7l0,0
								c-1,0.5-24.1,12.4-24.1,46C406,386.2,405.1,387.1,404,387.1z"/>
						</g>
					</g>
					<g>
						<g>
							<path d="M404,316.6h-58.2c0,0,0.4,9,1,12.9c0.6,3.9,2.2,4.3,2.2,4.3h0c5.6,4.6,28,8,54.9,8c26.9,0,49.3-3.4,54.9-8h0
								c0,0,1.6-0.4,2.2-4.3c0.6-3.9,1-12.9,1-12.9H404z"/>
							<path d="M404,343.2c-26.6,0-49.4-3.3-55.6-8.2c-0.7-0.3-2.3-1.5-2.9-5.3c-0.6-3.9-1-12.7-1-13l-0.1-1.4h119.2l-0.1,1.4
								c0,0.4-0.5,9.1-1,13c-0.6,3.8-2.2,5-2.9,5.3C453.3,339.9,430.6,343.2,404,343.2z M349.4,332.5h0.1l0.4,0.3
								c4.6,3.8,24.7,7.7,54,7.7c29.3,0,49.4-3.9,54-7.7l0.4-0.3h0.2c0.2-0.2,0.9-0.9,1.2-3.2c0.4-2.9,0.8-8.6,0.9-11.3H347.2
								c0.2,2.7,0.5,8.5,0.9,11.3C348.5,331.5,349.1,332.3,349.4,332.5z"/>
						</g>
						<g>
							<ellipse class="st1" cx="404" cy="316.6" rx="58.2" ry="10.2"/>
							<path d="M404,328.2c-23.9,0-59.5-3.1-59.5-11.6c0-8.5,35.6-11.6,59.5-11.6c23.9,0,59.5,3.1,59.5,11.6
								C463.5,325.1,427.9,328.2,404,328.2z M404,307.8c-37.3,0-56.8,5.8-56.8,8.8c0,3.1,19.5,8.8,56.8,8.8s56.8-5.8,56.8-8.8
								C460.8,313.5,441.3,307.8,404,307.8z"/>
						</g>
					</g>
				</g>
				<g>
					<g>
						<path d="M412.8,273.5c-1.1-0.8-5.3-1.8-8.8-1.8c-3.5,0-7.8,1.1-8.8,1.8c-1.1,0.8-12.3,12.8-11.9,27.1
							c0.4,14.3,11.9,19.6,11.9,19.6h8.9h8.9c0,0,11.5-5.3,11.9-19.6C425.1,286.3,413.9,274.3,412.8,273.5z"/>
						<path d="M413.1,320.9l-18.3-0.1c-0.1-0.1-11.9-5.7-12.2-20.2c-0.4-14.4,10.9-26.7,12.2-27.7c1.2-0.9,5.6-2,9.2-2
							c3.6,0,8,1.1,9.2,2c1.3,0.9,12.6,13.3,12.2,27.7c-0.4,14.5-12.1,20.2-12.2,20.2L413.1,320.9z M395.2,319.5h17.6
							c1.2-0.6,11-6.1,11.3-19c0.4-13.8-10.4-25.6-11.7-26.5c-0.9-0.7-5.1-1.7-8.4-1.7c-3.4,0-7.5,1-8.4,1.7
							c-1.2,0.9-12,12.7-11.7,26.5C384.2,313.5,394,318.9,395.2,319.5z"/>
					</g>
					<g>
						<path class="st1" d="M411.4,274.8c0,0.7-3.2,1.3-7,1.3c-3.9,0-7-0.6-7-1.3c0-0.7,3.2-1.3,7-1.3
							C408.3,273.5,411.4,274,411.4,274.8z"/>
						<path class="st1" d="M404.4,276.4c-0.8,0-7.4,0-7.4-1.7c0-1.6,6.6-1.7,7.4-1.7c0.8,0,7.4,0,7.4,1.7
							C411.8,276.4,405.1,276.4,404.4,276.4z M404.4,273.8c-4.1,0-6.5,0.6-6.7,1c0.2,0.3,2.6,0.9,6.7,0.9c4,0,6.4-0.6,6.7-1
							C410.8,274.4,408.4,273.8,404.4,273.8z"/>
					</g>
					<g>
						<g>
							<path class="st1" d="M400.4,210.2c0,0-3.6,1.7-5.9,5.6c-1.9-3.2-1.9-6-1.9-6c-1.9,2.6-2.8,5.2-3.3,7.7
								c-2.4-1.4-4.4-2.2-4.4-2.2s-0.3,2.2-0.3,5c-2.4-0.9-5.2-1.4-8.5-1.1c0,0,2.4,1.4,4.2,4.7c-4.6,0.1-7.9,2.3-7.9,2.3
								c11.6,15.4,22.3,6.5,22.3,6.5c0,0,0,0,0,0c0,0,0,0,0,0c0,0,0,0,0,0C394.8,232.7,407.9,228,400.4,210.2z"/>
							<path d="M387.1,236.7c-0.5,0-1.1,0-1.6-0.1c-5-0.6-9.7-3.8-14.1-9.5c-0.2-0.3-0.3-0.7-0.3-1c0.1-0.4,0.3-0.7,0.6-0.9
								c0.1-0.1,2.6-1.7,6.2-2.3c-1.3-1.6-2.5-2.4-2.5-2.4c-0.5-0.3-0.7-0.9-0.6-1.5c0.1-0.6,0.6-1,1.2-1c2.5-0.2,5,0,7.3,0.6
								c0.1-1.9,0.3-3.2,0.3-3.3c0.1-0.4,0.3-0.8,0.7-1c0.4-0.2,0.8-0.2,1.2-0.1c0.1,0,1.2,0.5,2.9,1.4c0.6-2.3,1.7-4.4,3.1-6.5
								c0.3-0.5,1-0.7,1.5-0.5c0.6,0.2,0.9,0.7,1,1.3c0,0,0,1.4,0.8,3.4c2.3-2.8,5-4.1,5.1-4.2c0.3-0.2,0.7-0.2,1.1,0
								c0.3,0.1,0.6,0.4,0.8,0.7c2.8,6.6,3.2,12.3,1.2,16.9c-2.1,4.9-6.3,6.9-7.3,7.3C394.7,234.5,391.6,236.7,387.1,236.7z
								 M374.6,226.6c3.5,4.3,7.3,6.7,11.2,7.2c4.4,0.5,7.6-1.7,8.1-2.1c0.2-0.2,0.4-0.3,0.6-0.3c0.6-0.3,4.2-1.9,5.9-5.9
								c1.5-3.6,1.3-8-0.6-13.3c-1.1,0.8-2.8,2.2-4.1,4.3c-0.3,0.4-0.7,0.7-1.2,0.7c-0.5,0-0.9-0.3-1.2-0.7c-0.6-1-1-2-1.3-2.9
								c-0.6,1.4-1.1,2.8-1.3,4.2c-0.1,0.4-0.4,0.8-0.8,1c-0.4,0.2-0.9,0.2-1.3,0c-0.9-0.5-1.8-1-2.5-1.3c-0.1,0.8-0.1,1.8-0.1,3
								c0,0.4-0.2,0.9-0.6,1.1c-0.4,0.2-0.8,0.3-1.3,0.1c-1.4-0.5-2.9-0.9-4.4-1c0.6,0.7,1.3,1.6,1.9,2.6c0.2,0.4,0.2,0.9,0,1.4
								c-0.2,0.4-0.7,0.7-1.2,0.7C378,225.3,375.9,226.1,374.6,226.6z"/>
						</g>
						<g>
							<path d="M405.9,310.9l-2.7-0.2c3.3-48.3-10-78.7-10.1-79l2.5-1.1C395.7,230.9,409.2,261.9,405.9,310.9z"/>
						</g>
						<g>
							<path class="st1" d="M402.8,264.3c0,0-1.8-16.6,13.4-24.2C416.2,240.1,415.5,258.1,402.8,264.3z"/>
							<path d="M402.2,265.4l-0.1-1c0-0.2-1.7-17.1,13.7-24.9l1-0.5l0,1.2c0,0.8-0.9,18.5-13.7,24.8L402.2,265.4z M415.4,241.3
								c-11.3,6.4-12,18.4-12,21.9C412.9,257.9,415,245.3,415.4,241.3z"/>
						</g>
						<g>
							<path class="st1" d="M400.6,252.2c0,0-3.3-8-16.9-7.2C383.7,245,390.1,256.5,400.6,252.2z"/>
							<path d="M395.9,253.9c-8,0-12.8-8.4-12.8-8.5l-0.5-0.9l1.1-0.1c13.8-0.8,17.4,7.3,17.5,7.6l0.3,0.6l-0.6,0.3
								C399.1,253.6,397.5,253.9,395.9,253.9z M384.9,245.7c1.7,2.5,6.9,8.9,14.7,6.2C398.6,250.1,394.8,245.4,384.9,245.7z"/>
						</g>
						<g>
							<g>
								<path class="st1" d="M396.2,231.6c0,0-5.8-13.7-20-12.4c0,0,5,3.1,6.1,10.2C383.2,235,390.3,237.1,396.2,231.6z"/>
								<path d="M389,235.5c-0.9,0-1.8-0.1-2.7-0.4c-2.5-0.9-4.2-2.9-4.6-5.5c-1.1-6.7-5.8-9.7-5.8-9.7c-0.3-0.2-0.4-0.5-0.3-0.7
									c0.1-0.3,0.3-0.5,0.6-0.5c14.6-1.3,20.6,12.7,20.7,12.8c0.1,0.3,0,0.6-0.2,0.8C394.3,234.3,391.6,235.5,389,235.5z
									 M378,219.8c1.7,1.5,4.2,4.6,5,9.5c0.3,2.1,1.7,3.7,3.7,4.4c2.7,0.9,5.9,0.1,8.7-2.3C394.3,229.2,389.1,219.8,378,219.8
									C378,219.8,378,219.8,378,219.8z"/>
							</g>
							<g>
								<path class="st1" d="M393.2,233.3c0,0-8.9-11.9-0.6-23.5c0,0,0.1,5.9,5.7,10.5C402.7,223.8,400.9,231,393.2,233.3z"/>
								<path d="M393.2,234c-0.2,0-0.4-0.1-0.5-0.3c-0.1-0.1-9.1-12.4-0.6-24.3c0.2-0.2,0.5-0.3,0.8-0.3c0.3,0.1,0.5,0.3,0.5,0.6
									c0,0.1,0.2,5.6,5.5,9.9c2,1.7,2.9,4.2,2.4,6.7c-0.7,3.4-3.6,6.2-7.8,7.5C393.3,234,393.3,234,393.2,234z M392.2,211.7
									c-5.5,9.5,0,18.8,1.3,20.8c3.4-1.2,5.8-3.5,6.3-6.3c0.4-2.1-0.3-4.1-1.9-5.4C394,217.6,392.7,213.9,392.2,211.7z"/>
							</g>
							<g>
								<path class="st1" d="M394.8,232.7c0,0-10.7,8.9-22.3-6.5C372.5,226.2,384.7,217.9,394.8,232.7z"/>
								<path d="M387.1,236c-0.5,0-1,0-1.5-0.1c-4.8-0.6-9.4-3.7-13.6-9.3l-0.4-0.6l0.6-0.4c0.1-0.1,12.8-8.5,23.2,6.7l0.3,0.5
									l-0.5,0.4C395.1,233.4,391.9,236,387.1,236z M373.6,226.4c3.8,4.9,7.9,7.6,12.2,8.1c4,0.5,7-1.2,8.2-2
									C385.5,220.9,376.1,225,373.6,226.4z"/>
							</g>
							<g>
								<path class="st1" d="M394.8,232.7c0,0,13.1-4.7,5.6-22.5C400.4,210.2,387.1,216.5,394.8,232.7z"/>
								<path d="M394.5,233.6l-0.3-0.6c-7.9-16.6,5.8-23.4,5.9-23.4l0.6-0.3l0.3,0.7c2.7,6.4,3.1,12,1.2,16.4c-2.3,5.2-7,7-7.2,7
									L394.5,233.6z M400.1,211.2c-2.5,1.5-10.8,7.6-4.9,20.7c1.2-0.6,4.2-2.4,5.8-6.1C402.7,221.8,402.4,216.9,400.1,211.2z"/>
							</g>
							<g>
								<path class="st1" d="M385,215.3c0,0-3.1,24.5,9.8,17.1C407.7,225,385,215.3,385,215.3z"/>
								<path d="M390.5,234.5c-1,0-1.9-0.3-2.7-0.8c-5.3-3.5-3.6-17.8-3.5-18.5l0.1-0.9l0.8,0.4c0.6,0.2,13.8,5.9,14.2,12.3
									c0.1,2.3-1.3,4.3-4.3,6C393.4,234,391.8,234.5,390.5,234.5z M385.5,216.4c-0.4,4.4-0.6,13.9,3,16.2c1.4,0.9,3.4,0.7,5.9-0.7
									c2.5-1.4,3.7-3,3.6-4.7C397.8,222.8,389.6,218.2,385.5,216.4z"/>
							</g>
						</g>
					</g>
				</g>
			</g>
		</g>
	</g>
</g>
<text transform="matrix(1 0 0 1 116.2104 291.0547)" class="st1 st2 st3">ئطاشلا</text>
<text transform="matrix(1 0 0 1 121.8022 347.8018)" class="st2 st4">ثاثاا ءارشل</text>
<text transform="matrix(1 0 0 1 124.7432 398.2686)" class="st2 st5">لـمعتســملا</text>
</svg>