<?xml version="1.0" encoding="utf-8"?>
<!-- Generator: Adobe Illustrator 28.0.0, SVG Export Plug-In . SVG Version: 6.00 Build 0)  -->
<svg version="1.1" xmlns="http://www.w3.org/2000/svg" xmlns:xlink="http://www.w3.org/1999/xlink" x="0px" y="0px"
	 viewBox="0 0 500 500" style="enable-background:new 0 0 500 500;" xml:space="preserve">
<style type="text/css">
	.st0{fill:#69B883;}
	.st1{fill:#FFFFFF;}
</style>
<g id="BACKGROUND">
	<path class="st0" d="M250,478.4L250,478.4C123.9,478.4,21.6,376.1,21.6,250v0C21.6,123.9,123.9,21.6,250,21.6h0
		c126.1,0,228.4,102.3,228.4,228.4v0C478.4,376.1,376.1,478.4,250,478.4z"/>
</g>
<g id="OBJECTS">
	<g>
		<g>
			<g>
				<g>
					<g>
						<g>
							<path d="M293,448.2c0-6.6,0-8.2-21.8-20.8C249.4,414.8,250,398,250,398h0c0,0,0.6,16.9-21.2,29.4
								C207,440,207,441.6,207,448.2H293z"/>
							<path d="M294.2,449.3h-88.4v-1.2c0-7.3,0.8-9.3,22.4-21.8c19.6-11.3,20.6-26.3,20.6-28.2c0-0.1,0-0.1,0-0.2c0,0,0,0,0,0
								l-0.1-3l2.4,2.5l0,0.4h0c0,0,0,0.2,0,0.4c0,2.3,1.2,16.9,20.6,28.1c21.7,12.5,22.4,14.5,22.4,21.8V449.3z M208.1,447h83.8
								c-0.1-5.2-1.4-7.2-21.2-18.6c-13.6-7.8-18.7-17.3-20.7-23.6c-2,6.3-7.1,15.8-20.6,23.6C209.5,439.8,208.2,441.8,208.1,447z"
								/>
						</g>
						<g>
							<g>
								<path d="M250,432.7c-2.6,0-4.6-2.1-4.6-4.6V265.6c0-2.6,2.1-4.6,4.6-4.6s4.6,2.1,4.6,4.6V428
									C254.6,430.6,252.6,432.7,250,432.7z"/>
							</g>
							<g>
								<path d="M250,354.4c-1.9,0-3.5-1.6-3.5-3.5c0-57.4-40.7-78-41.1-78.2c-1.7-0.8-2.4-2.9-1.6-4.7c0.9-1.7,2.9-2.4,4.7-1.6
									c1.8,0.9,45,22.8,45,84.5C253.5,352.9,251.9,354.4,250,354.4z"/>
							</g>
							<g>
								<path d="M250,354.4c-1.9,0-3.5-1.6-3.5-3.5c0-61.7,43.2-83.6,45-84.5c1.7-0.9,3.8-0.1,4.7,1.6c0.8,1.7,0.1,3.8-1.6,4.7l0,0
									c-1.7,0.8-41.1,21.1-41.1,78.2C253.5,352.9,251.9,354.4,250,354.4z"/>
							</g>
						</g>
						<g>
							<g>
								<path d="M250,234.4h-99c0,0,0.8,15.4,1.7,22c1,6.6,3.8,7.4,3.8,7.4h0c9.5,7.8,47.7,13.6,93.5,13.6c45.8,0,84-5.8,93.5-13.6
									h0c0,0,2.8-0.7,3.8-7.4c1-6.6,1.7-22,1.7-22H250z"/>
								<path d="M250,279.7c-45.3,0-84-5.7-94.6-13.9c-1.3-0.6-4-2.6-4.9-9.1c-1-6.7-1.7-21.6-1.8-22.2l-0.1-2.4h202.9l-0.1,2.4
									c0,0.6-0.8,15.5-1.8,22.2c-1,6.5-3.7,8.5-4.9,9.1C334,274,295.3,279.7,250,279.7z M157.1,261.4h0.2l0.7,0.5
									c7.9,6.5,42.1,13.1,92,13.1c49.9,0,84.1-6.6,92-13.1l0.6-0.5h0.3c0.3-0.3,1.5-1.6,2-5.4c0.7-4.9,1.3-14.7,1.6-19.3H153.4
									c0.3,4.6,0.9,14.4,1.6,19.3C155.6,259.7,156.7,261,157.1,261.4z"/>
							</g>
							<g>
								<ellipse class="st1" cx="250" cy="234.4" rx="99" ry="17.4"/>
								<path d="M250,254.1c-40.7,0-101.4-5.2-101.4-19.7c0-14.5,60.6-19.7,101.4-19.7c40.7,0,101.4,5.2,101.4,19.7
									C351.4,248.8,290.7,254.1,250,254.1z M250,219.3c-63.5,0-96.7,9.8-96.7,15.1c0,5.3,33.2,15.1,96.7,15.1s96.7-9.8,96.7-15.1
									C346.7,229.1,313.5,219.3,250,219.3z"/>
							</g>
						</g>
					</g>
					<g>
						<g>
							<path d="M265,160.9c-1.8-1.3-9.1-3.1-15-3.1c-6,0-13.2,1.8-15,3.1c-1.8,1.3-21,21.8-20.3,46.1c0.7,24.3,20.2,33.4,20.2,33.4
								H250h15.2c0,0,19.5-9.1,20.2-33.4C286.1,182.8,266.9,162.3,265,160.9z"/>
							<path d="M265.5,241.6l-31.2-0.1c-0.2-0.1-20.2-9.7-20.8-34.4c-0.7-24.5,18.6-45.5,20.8-47.1c2.1-1.5,9.6-3.4,15.7-3.4
								c6.2,0,13.6,1.8,15.7,3.4c2.2,1.6,21.5,22.6,20.8,47.1c-0.7,24.7-20.6,34.3-20.8,34.4L265.5,241.6z M235.1,239.3h29.9
								c2.1-1.1,18.7-10.4,19.3-32.3c0.6-23.6-17.8-43.6-19.9-45.2c-1.6-1.2-8.7-2.9-14.4-2.9c-5.7,0-12.8,1.8-14.4,2.9
								c-2.1,1.5-20.5,21.6-19.9,45.2C216.4,229,233,238.2,235.1,239.3z"/>
						</g>
						<g>
							<path class="st1" d="M262.7,163.1c0,1.2-5.4,2.2-12,2.2c-6.6,0-12-1-12-2.2c0-1.2,5.4-2.2,12-2.2
								C257.3,160.9,262.7,161.9,262.7,163.1z"/>
							<path class="st1" d="M250.7,165.9c-1.3,0-12.6-0.1-12.6-2.8s11.3-2.8,12.6-2.8c1.3,0,12.6,0.1,12.6,2.8
								S252,165.9,250.7,165.9z M250.7,161.5c-7,0-11.1,1.1-11.4,1.7c0.3,0.5,4.4,1.6,11.4,1.6c6.8,0,10.9-1,11.4-1.7
								C261.6,162.5,257.5,161.5,250.7,161.5z"/>
						</g>
						<g>
							<g>
								<path class="st1" d="M244,53.2c0,0-6.1,2.9-10.1,9.5c-3.2-5.5-3.2-10.2-3.2-10.2c-3.2,4.4-4.8,8.9-5.6,13.2
									c-4.1-2.3-7.4-3.7-7.4-3.7s-0.5,3.7-0.5,8.5c-4.1-1.6-8.9-2.4-14.4-1.9c0,0,4.1,2.5,7.2,8c-7.8,0.1-13.4,3.9-13.4,3.9
									c19.7,26.3,37.9,11.1,37.9,11.1c0,0,0,0,0,0c0,0,0,0,0,0c0,0,0,0,0,0C234.5,91.6,256.7,83.5,244,53.2z"/>
								<path d="M221.3,98.3c-0.9,0-1.8,0-2.8-0.2c-8.5-1-16.6-6.4-23.9-16.2c-0.4-0.5-0.5-1.2-0.4-1.8c0.1-0.6,0.5-1.2,1-1.5
									c0.2-0.1,4.4-2.9,10.6-3.9c-2.2-2.7-4.3-4-4.3-4.1c-0.8-0.5-1.3-1.5-1-2.5c0.2-1,1.1-1.7,2-1.8c4.3-0.4,8.5,0,12.4,1.1
									c0.2-3.3,0.4-5.5,0.5-5.6c0.1-0.7,0.5-1.4,1.1-1.7c0.6-0.4,1.4-0.4,2.1-0.1c0.1,0,2.1,0.9,4.9,2.4c1-3.9,2.8-7.6,5.3-11
									c0.6-0.8,1.6-1.2,2.6-0.9c1,0.3,1.6,1.2,1.6,2.2c0,0,0.1,2.4,1.3,5.7c4-4.8,8.5-7,8.7-7.1c0.6-0.3,1.2-0.3,1.8-0.1
									c0.6,0.2,1.1,0.7,1.3,1.3c4.7,11.3,5.4,21,2,28.8c-3.7,8.3-10.7,11.7-12.5,12.4C234.3,94.6,228.9,98.3,221.3,98.3z
									 M200,81.2c6,7.4,12.4,11.5,19,12.3c7.5,0.9,12.9-2.9,13.8-3.6c0.3-0.3,0.6-0.5,1-0.6c1-0.4,7.1-3.2,10.1-10.1
									c2.6-6.1,2.3-13.7-1-22.6c-1.9,1.3-4.8,3.8-7,7.3c-0.4,0.7-1.1,1.2-2,1.1c-0.8,0-1.6-0.5-2-1.2c-1-1.8-1.7-3.5-2.3-5
									c-1.1,2.3-1.8,4.7-2.2,7.2c-0.1,0.7-0.6,1.4-1.3,1.7c-0.7,0.3-1.5,0.3-2.1-0.1c-1.6-0.9-3.1-1.7-4.3-2.2
									c-0.1,1.4-0.2,3.1-0.2,5.1c0,0.8-0.4,1.5-1,1.9c-0.6,0.4-1.4,0.5-2.1,0.2c-2.4-0.9-4.9-1.5-7.5-1.8c1.1,1.2,2.2,2.7,3.2,4.5
									c0.4,0.7,0.4,1.6,0,2.3c-0.4,0.7-1.2,1.2-2,1.2C205.7,78.9,202.2,80.2,200,81.2z"/>
							</g>
							<g>
								<path d="M253.3,224.7l-4.6-0.3c5.6-82.2-17-134-17.2-134.5l4.2-1.9C235.9,88.5,259,141.3,253.3,224.7z"/>
							</g>
							<g>
								<path class="st1" d="M248,145.3c0,0-3-28.2,22.8-41.2C270.8,104.1,269.6,134.8,248,145.3z"/>
								<path d="M247.1,147.1l-0.2-1.6c0-0.3-2.8-29.2,23.4-42.4l1.8-0.9l-0.1,2c0,1.3-1.5,31.5-23.4,42.2L247.1,147.1z
									 M269.5,106.1c-19.3,10.9-20.5,31.3-20.4,37.3C265.2,134.3,268.7,112.9,269.5,106.1z"/>
							</g>
							<g>
								<path class="st1" d="M244.3,124.7c0,0-5.7-13.6-28.7-12.2C215.5,112.5,226.3,132.1,244.3,124.7z"/>
								<path d="M236.3,127.5c-13.7,0-21.7-14.3-21.8-14.5l-0.9-1.6l1.8-0.1c23.5-1.3,29.6,12.4,29.9,12.9l0.5,1.1l-1.1,0.4
									C241.7,127,238.9,127.5,236.3,127.5z M217.6,113.6c2.9,4.3,11.8,15.2,25,10.5C240.8,121.2,234.5,113.2,217.6,113.6z"/>
							</g>
							<g>
								<g>
									<path class="st1" d="M236.8,89.7c0,0-9.9-23.3-34.1-21.1c0,0,8.6,5.2,10.5,17.4C214.6,95.4,226.8,98.9,236.8,89.7z"/>
									<path d="M224.5,96.2c-1.6,0-3.1-0.3-4.6-0.8c-4.2-1.5-7.1-5-7.8-9.4c-1.8-11.5-9.8-16.5-9.9-16.6c-0.4-0.3-0.6-0.8-0.5-1.3
										c0.1-0.5,0.5-0.8,1-0.9c24.8-2.2,35.1,21.6,35.2,21.8c0.2,0.4,0.1,1-0.3,1.3C233.5,94.3,228.9,96.2,224.5,96.2z
										 M205.9,69.6c2.8,2.6,7.1,7.8,8.4,16.2c0.6,3.6,2.9,6.3,6.3,7.5c4.6,1.6,10.1,0.1,14.7-3.9
										C233.6,85.6,224.7,69.6,205.9,69.6C205.9,69.6,205.9,69.6,205.9,69.6z"/>
								</g>
								<g>
									<path class="st1" d="M231.7,92.6c0,0-15.1-20.2-1.1-40.1c0,0,0.2,10,9.7,17.8C247.8,76.3,244.7,88.7,231.7,92.6z"/>
									<path d="M231.7,93.7c-0.4,0-0.7-0.2-0.9-0.5c-0.2-0.2-15.5-21.2-1.1-41.4c0.3-0.4,0.8-0.6,1.3-0.4c0.5,0.1,0.8,0.6,0.8,1.1
										c0,0.1,0.3,9.6,9.3,16.9c3.5,2.8,5,7.1,4.1,11.5c-1.2,5.9-6.1,10.6-13.2,12.8C231.9,93.7,231.8,93.7,231.7,93.7z
										 M229.9,55.8c-9.3,16.1,0,32,2.2,35.4c5.9-2,9.9-6,10.8-10.8c0.7-3.6-0.5-6.9-3.3-9.2C233.1,65.9,230.7,59.5,229.9,55.8z"
										/>
								</g>
								<g>
									<path class="st1" d="M234.5,91.6c0,0-18.2,15.2-37.9-11.1C196.5,80.5,217.2,66.4,234.5,91.6z"/>
									<path d="M221.4,97.1c-0.8,0-1.7,0-2.6-0.2c-8.2-0.9-16-6.3-23.1-15.8l-0.7-1l1-0.7c0.2-0.1,21.9-14.5,39.5,11.4l0.6,0.9
										l-0.8,0.7C234.9,92.7,229.5,97.1,221.4,97.1z M198.2,80.8c6.5,8.3,13.5,13,20.7,13.8c6.7,0.8,11.9-2,13.9-3.3
										C218.6,71.4,202.5,78.4,198.2,80.8z"/>
								</g>
								<g>
									<path class="st1" d="M234.5,91.6c0,0,22.3-8,9.5-38.4C244,53.2,221.4,64,234.5,91.6z"/>
									<path d="M233.9,93l-0.5-1c-13.4-28.3,9.8-39.8,10.1-39.9l1.1-0.5l0.5,1.1c4.6,11,5.3,20.4,2,27.9
										c-3.9,8.9-11.8,11.8-12.2,12L233.9,93z M243.4,54.8C239.2,57.3,225,67.7,235,90c2.1-1,7.2-4.1,9.9-10.3
										C247.8,73,247.3,64.7,243.4,54.8z"/>
								</g>
								<g>
									<path class="st1" d="M217.7,62c0,0-5.3,41.7,16.7,29.1C256.3,78.4,217.7,62,217.7,62z"/>
									<path d="M227,94.6c-1.7,0-3.2-0.5-4.6-1.4c-9-6-6.1-30.4-5.9-31.4l0.2-1.5l1.4,0.6c1,0.4,23.5,10.1,24.1,20.9
										c0.2,3.9-2.2,7.3-7.3,10.2C232,93.8,229.3,94.6,227,94.6z M218.6,63.7c-0.7,7.6-1,23.6,5.1,27.6c2.4,1.6,5.8,1.2,10.1-1.3
										c4.3-2.4,6.3-5.2,6.2-8.1C239.5,74.7,225.5,66.9,218.6,63.7z"/>
								</g>
							</g>
						</g>
					</g>
				</g>
			</g>
		</g>
	</g>
</g>
</svg>